<svg width="30" height="30" viewBox="0 0 30 30" fill="none" xmlns="http://www.w3.org/2000/svg">
<g clip-path="url(#clip0)">
<path d="M9.37616 27.1937C20.6976 27.1937 26.8886 17.8144 26.8886 9.68126C26.8886 9.41484 26.8831 9.14956 26.8712 8.88566C28.0729 8.01683 29.1175 6.93261 29.9415 5.69848C28.8387 6.18874 27.6517 6.51856 26.4068 6.66756C27.6776 5.90539 28.6533 4.70009 29.1134 3.26317C27.9241 3.96813 26.6071 4.48037 25.205 4.75708C24.0818 3.56072 22.4826 2.8125 20.712 2.8125C17.3131 2.8125 14.5567 5.56893 14.5567 8.96669C14.5567 9.44986 14.6107 9.91952 14.7162 10.3702C9.60069 10.1127 5.06448 7.66366 2.02904 3.93929C1.50055 4.84887 1.19568 5.90562 1.19568 7.03309C1.19568 9.16833 2.28241 11.0536 3.93471 12.1564C2.92489 12.1253 1.9764 11.8481 1.14716 11.3867C1.14624 11.4125 1.14624 11.4377 1.14624 11.4652C1.14624 14.4461 3.26775 16.935 6.08438 17.499C5.5671 17.6397 5.02282 17.7155 4.46137 17.7155C4.06541 17.7155 3.67951 17.6766 3.30437 17.6045C4.08807 20.0501 6.36041 21.8296 9.05435 21.8795C6.94772 23.5307 4.29383 24.5142 1.40969 24.5142C0.913469 24.5142 0.423203 24.4858 -0.0585938 24.4291C2.66533 26.175 5.90013 27.194 9.37639 27.194" fill="white" fill-opacity="0.3"/>
</g>
<defs>
<clipPath id="clip0">
<rect width="30" height="30" fill="white"/>
</clipPath>
</defs>
</svg>
