<svg width="30" height="30" viewBox="0 0 30 30" fill="none" xmlns="http://www.w3.org/2000/svg">
<path d="M0.380157 10.0303H6.81105V29.3783H0.380157V10.0303Z" fill="white" fill-opacity="0.3"/>
<path d="M3.63808 0.703125C1.43829 0.703125 0 2.1476 0 4.04617C0 5.90286 1.39549 7.38853 3.55362 7.38853H3.5955C5.83832 7.38853 7.23404 5.90286 7.23404 4.04617C7.19215 2.1476 5.83832 0.703125 3.63808 0.703125Z" fill="white" fill-opacity="0.3"/>
<path d="M22.5963 9.57617C19.1842 9.57617 17.6552 11.4514 16.8006 12.77V10.0303H10.3695V29.3783H16.8004V18.5735C16.8004 17.9951 16.8423 17.4177 17.0121 17.0041C17.4769 15.8489 18.5351 14.6523 20.3116 14.6523C22.6387 14.6523 23.5695 16.4266 23.5695 19.0276V29.3783H30V18.2844C30 12.3415 26.8272 9.57617 22.5963 9.57617V9.57617Z" fill="white" fill-opacity="0.3"/>
</svg>
