<svg width="27" height="27" viewBox="0 0 27 27" fill="none" xmlns="http://www.w3.org/2000/svg">
<path fill-rule="evenodd" clip-rule="evenodd" d="M17.0849 16.2805H17.9736L22.7436 21.073C23.2049 21.5343 23.2049 22.288 22.7436 22.7493C22.2824 23.2105 21.5286 23.2105 21.0674 22.7493L16.2861 17.968V17.0793L15.9824 16.7643C14.4074 18.1143 12.2586 18.8118 9.97485 18.4293C6.84735 17.9005 4.34985 15.2905 3.96735 12.1405C3.38235 7.38177 7.38735 3.37677 12.1461 3.96177C15.2961 4.34427 17.9061 6.84177 18.4349 9.96927C18.8174 12.253 18.1199 14.4018 16.7699 15.9768L17.0849 16.2805ZM6.1611 11.218C6.1611 14.0193 8.42235 16.2805 11.2236 16.2805C14.0249 16.2805 16.2861 14.0193 16.2861 11.218C16.2861 8.41677 14.0249 6.15552 11.2236 6.15552C8.42235 6.15552 6.1611 8.41677 6.1611 11.218Z" fill="#008379"/>
</svg>
