<svg width="60" height="60" viewBox="0 0 60 60" fill="none" xmlns="http://www.w3.org/2000/svg">
<path d="M25.1719 27.1875C24.525 27.1875 24 27.7125 24 28.3594C24 29.0063 24.525 29.5312 25.1719 29.5312C25.8188 29.5312 26.3438 29.0063 26.3438 28.3594C26.3438 27.7125 25.8188 27.1875 25.1719 27.1875Z" fill="#008379"/>
<path d="M25.1719 20.1562C24.525 20.1562 24 20.6812 24 21.3281C24 21.975 24.525 22.5 25.1719 22.5C25.8188 22.5 26.3438 21.975 26.3438 21.3281C26.3438 20.6812 25.8188 20.1562 25.1719 20.1562Z" fill="#008379"/>
<path d="M25.1719 50.625C24.525 50.625 24 51.15 24 51.7969C24 52.4438 24.525 52.9688 25.1719 52.9688C25.8188 52.9688 26.3438 52.4438 26.3438 51.7969C26.3438 51.15 25.8188 50.625 25.1719 50.625Z" fill="#008379"/>
<path d="M48.5694 47.7748L33.5206 21.0212V6.83039C34.8848 6.34676 35.8644 5.04352 35.8644 3.51562C35.8644 1.57711 34.2873 0 32.3487 0H18.2862C16.3477 0 14.7706 1.57711 14.7706 3.51562C14.7706 5.04352 15.7502 6.34676 17.1144 6.83039V21.0212L2.06562 47.7748C0.620933 50.343 0.646597 53.395 2.13406 55.9384C3.6214 58.4816 6.26843 60 9.21476 60H41.4202C44.3666 60 47.0135 58.4816 48.5009 55.9384C49.9884 53.395 50.0141 50.343 48.5694 47.7748ZM19.3077 21.9026C19.4063 21.7273 19.4581 21.5293 19.4581 21.3281V7.03125H20.63C21.2771 7.03125 21.8019 6.50648 21.8019 5.85938C21.8019 5.21227 21.2771 4.6875 20.63 4.6875H18.2862C17.6401 4.6875 17.1144 4.1618 17.1144 3.51562C17.1144 2.86945 17.6401 2.34375 18.2862 2.34375H32.3487C32.9949 2.34375 33.5206 2.86945 33.5206 3.51562C33.5206 4.1618 32.9949 4.6875 32.3487 4.6875H30.005C29.3579 4.6875 28.8331 5.21227 28.8331 5.85938C28.8331 6.50648 29.3579 7.03125 30.005 7.03125H31.1769V21.3281C31.1769 21.5295 31.2287 21.7271 31.3273 21.9026L38.2345 34.1823C34.0163 33.8407 29.8128 34.6938 25.9508 36.6936C20.986 39.2629 15.4591 39.7152 10.2477 38.0093L19.3077 21.9026ZM46.4777 54.7552C45.4154 56.5717 43.5247 57.6562 41.4202 57.6562H9.21476C7.11031 57.6562 5.2196 56.5717 4.1573 54.7552C3.09476 52.9384 3.07636 50.7584 4.10843 48.9237L9.07812 40.0887C11.4894 40.9307 13.9812 41.3557 16.5121 41.3557C16.8868 41.3557 17.2624 41.3464 17.6387 41.3278C20.9088 41.1659 24.0678 40.307 27.0282 38.775C30.9882 36.7247 35.3437 36.0169 39.659 36.7147L46.5267 48.9237C47.5586 50.7584 47.5403 52.9384 46.4777 54.7552Z" fill="#008379"/>
<path d="M24.5156 27.1875C22.5771 27.1875 21 28.7646 21 30.7031C21 32.6416 22.5771 34.2188 24.5156 34.2188C26.4541 34.2188 28.0312 32.6416 28.0312 30.7031C28.0312 28.7646 26.4541 27.1875 24.5156 27.1875ZM24.5156 31.875C23.8695 31.875 23.3438 31.3493 23.3438 30.7031C23.3438 30.057 23.8695 29.5312 24.5156 29.5312C25.1618 29.5312 25.6875 30.057 25.6875 30.7031C25.6875 31.3493 25.1618 31.875 24.5156 31.875Z" fill="#008379"/>
<path d="M36.6094 50.625H13.1719C12.5248 50.625 12 51.1498 12 51.7969C12 52.444 12.5248 52.9688 13.1719 52.9688H36.6094C37.2565 52.9688 37.7812 52.444 37.7812 51.7969C37.7812 51.1498 37.2565 50.625 36.6094 50.625Z" fill="#008379"/>
</svg>
