<svg width="253" height="65" viewBox="0 0 253 65" fill="none" xmlns="http://www.w3.org/2000/svg">
<path d="M72.45 24.95C75.3833 24.95 77.5667 25.7833 79 27.45C80.4333 29.1167 81.15 31.6333 81.15 35V47.3C81.15 48.2333 80.8667 48.9667 80.3 49.5C79.7667 50.0333 79.0167 50.3 78.05 50.3C77.0833 50.3 76.3167 50.0333 75.75 49.5C75.1833 48.9667 74.9 48.2333 74.9 47.3V35.35C74.9 33.45 74.5333 32.0667 73.8 31.2C73.1 30.3333 71.9833 29.9 70.45 29.9C68.65 29.9 67.2 30.4667 66.1 31.6C65.0333 32.7333 64.5 34.25 64.5 36.15V47.3C64.5 48.2333 64.2167 48.9667 63.65 49.5C63.0833 50.0333 62.3167 50.3 61.35 50.3C60.3833 50.3 59.6167 50.0333 59.05 49.5C58.5167 48.9667 58.25 48.2333 58.25 47.3V27.95C58.25 27.0833 58.5333 26.3833 59.1 25.85C59.6667 25.3167 60.4333 25.05 61.4 25.05C62.2667 25.05 62.9667 25.3167 63.5 25.85C64.0667 26.35 64.35 27.0167 64.35 27.85V29.2C65.1833 27.8333 66.3 26.7833 67.7 26.05C69.1 25.3167 70.6833 24.95 72.45 24.95ZM106.848 43.3C107.415 43.3 107.865 43.5167 108.198 43.95C108.565 44.3833 108.748 44.9667 108.748 45.7C108.748 46.7333 108.131 47.6 106.898 48.3C105.765 48.9333 104.481 49.45 103.048 49.85C101.615 50.2167 100.248 50.4 98.948 50.4C95.0147 50.4 91.898 49.2667 89.598 47C87.298 44.7333 86.148 41.6333 86.148 37.7C86.148 35.2 86.648 32.9833 87.648 31.05C88.648 29.1167 90.048 27.6167 91.848 26.55C93.6814 25.4833 95.748 24.95 98.048 24.95C100.248 24.95 102.165 25.4333 103.798 26.4C105.431 27.3667 106.698 28.7333 107.598 30.5C108.498 32.2667 108.948 34.35 108.948 36.75C108.948 38.1833 108.315 38.9 107.048 38.9H92.298C92.498 41.2 93.148 42.9 94.248 44C95.348 45.0667 96.948 45.6 99.048 45.6C100.115 45.6 101.048 45.4667 101.848 45.2C102.681 44.9333 103.615 44.5667 104.648 44.1C105.648 43.5667 106.381 43.3 106.848 43.3ZM98.198 29.35C96.498 29.35 95.1314 29.8833 94.098 30.95C93.098 32.0167 92.498 33.55 92.298 35.55H103.598C103.531 33.5167 103.031 31.9833 102.098 30.95C101.165 29.8833 99.8647 29.35 98.198 29.35ZM146.72 26.9C146.953 26.3 147.287 25.85 147.72 25.55C148.187 25.25 148.687 25.1 149.22 25.1C149.987 25.1 150.67 25.3667 151.27 25.9C151.903 26.4 152.22 27.0333 152.22 27.8C152.22 28.2333 152.137 28.6167 151.97 28.95L143.72 48.3C143.453 48.9333 143.037 49.4167 142.47 49.75C141.937 50.0833 141.337 50.25 140.67 50.25C140.037 50.25 139.437 50.0833 138.87 49.75C138.337 49.4167 137.937 48.9333 137.67 48.3L131.72 34L125.97 48.3C125.703 48.9333 125.287 49.4167 124.72 49.75C124.187 50.0833 123.587 50.25 122.92 50.25C122.287 50.25 121.687 50.0833 121.12 49.75C120.553 49.4167 120.137 48.9333 119.87 48.3L111.67 28.95C111.503 28.5167 111.42 28.15 111.42 27.85C111.42 27.0833 111.753 26.4333 112.42 25.9C113.087 25.3333 113.82 25.05 114.62 25.05C115.187 25.05 115.703 25.2 116.17 25.5C116.637 25.8 116.987 26.25 117.22 26.85L123.12 42.1L129.17 27C129.437 26.3667 129.82 25.9 130.32 25.6C130.82 25.2667 131.37 25.1 131.97 25.1C132.57 25.1 133.12 25.2667 133.62 25.6C134.12 25.9 134.503 26.3667 134.77 27L140.87 42.15L146.72 26.9ZM165 50.4C161.367 50.4 158.434 49.6833 156.2 48.25C155.134 47.6167 154.6 46.7167 154.6 45.55C154.6 44.8833 154.784 44.35 155.15 43.95C155.517 43.5167 155.967 43.3 156.5 43.3C157.067 43.3 157.85 43.5667 158.85 44.1C159.917 44.6 160.884 44.9833 161.75 45.25C162.65 45.5167 163.784 45.65 165.15 45.65C166.55 45.65 167.634 45.4167 168.4 44.95C169.2 44.4833 169.6 43.8333 169.6 43C169.6 42.4333 169.434 41.9833 169.1 41.65C168.8 41.3167 168.234 41.0167 167.4 40.75C166.6 40.45 165.367 40.1167 163.7 39.75C160.734 39.15 158.6 38.3 157.3 37.2C156.034 36.1 155.4 34.5833 155.4 32.65C155.4 31.1833 155.834 29.8667 156.7 28.7C157.567 27.5 158.75 26.5833 160.25 25.95C161.784 25.2833 163.517 24.95 165.45 24.95C166.85 24.95 168.2 25.1333 169.5 25.5C170.8 25.8333 171.967 26.3333 173 27C174.067 27.6667 174.6 28.55 174.6 29.65C174.6 30.3167 174.417 30.8833 174.05 31.35C173.684 31.7833 173.234 32 172.7 32C172.334 32 171.967 31.9333 171.6 31.8C171.267 31.6333 170.834 31.4 170.3 31.1C169.334 30.6 168.5 30.2333 167.8 30C167.1 29.7333 166.234 29.6 165.2 29.6C163.967 29.6 162.984 29.85 162.25 30.35C161.55 30.85 161.2 31.5333 161.2 32.4C161.2 33.2333 161.567 33.8667 162.3 34.3C163.034 34.7333 164.45 35.1667 166.55 35.6C168.784 36.0667 170.534 36.6 171.8 37.2C173.067 37.8 173.967 38.55 174.5 39.45C175.067 40.35 175.35 41.5 175.35 42.9C175.35 45.1667 174.4 46.9833 172.5 48.35C170.634 49.7167 168.134 50.4 165 50.4Z" fill="#008379"/>
<path d="M182.968 50.25C182.368 50.25 181.868 50.0833 181.468 49.75C181.101 49.3833 180.918 48.8833 180.918 48.25V16.5C180.918 15.8667 181.101 15.3833 181.468 15.05C181.868 14.6833 182.368 14.5 182.968 14.5C183.535 14.5 184.001 14.6833 184.368 15.05C184.768 15.3833 184.968 15.8667 184.968 16.5V48.25C184.968 48.8833 184.768 49.3833 184.368 49.75C184.001 50.0833 183.535 50.25 182.968 50.25ZM210.089 26.4C210.456 25.6 211.039 25.2 211.839 25.2C212.339 25.2 212.789 25.3667 213.189 25.7C213.589 26.0333 213.789 26.45 213.789 26.95C213.789 27.25 213.722 27.5167 213.589 27.75L199.539 58.05C199.372 58.4167 199.122 58.7 198.789 58.9C198.489 59.1 198.172 59.2 197.839 59.2C197.339 59.2 196.889 59.0333 196.489 58.7C196.122 58.4 195.939 58 195.939 57.5C195.939 57.2333 196.006 56.9667 196.139 56.7L199.639 49.15L189.739 27.75C189.606 27.5167 189.539 27.2667 189.539 27C189.539 26.5 189.756 26.0667 190.189 25.7C190.656 25.3333 191.156 25.15 191.689 25.15C192.022 25.15 192.339 25.25 192.639 25.45C192.972 25.65 193.222 25.9333 193.389 26.3L201.739 45.05L210.089 26.4Z" fill="#FFB34D"/>
<path d="M16.2489 46.457H6.65158C6.12677 46.457 5.70135 46.8824 5.70135 47.4073C5.70135 47.9321 6.12677 48.3575 6.65158 48.3575H16.2489C16.7737 48.3575 17.1991 47.9321 17.1991 47.4073C17.1991 46.8824 16.7737 46.457 16.2489 46.457Z" fill="#008379"/>
<path d="M30.5973 46.457H21C20.4752 46.457 20.0498 46.8824 20.0498 47.4073C20.0498 47.9321 20.4752 48.3575 21 48.3575H30.5973C31.122 48.3575 31.5475 47.9321 31.5475 47.4073C31.5475 46.8824 31.122 46.457 30.5973 46.457Z" fill="#008379"/>
<path d="M30.5973 22.7014H6.65158C6.12677 22.7014 5.70135 23.1268 5.70135 23.6516C5.70135 24.1764 6.12677 24.6018 6.65158 24.6018H30.5973C31.122 24.6018 31.5475 24.1764 31.5475 23.6516C31.5475 23.1268 31.122 22.7014 30.5973 22.7014Z" fill="#008379"/>
<path d="M30.5973 27.4525H21C20.4752 27.4525 20.0498 27.8779 20.0498 28.4027C20.0498 28.9275 20.4752 29.3529 21 29.3529H30.5973C31.122 29.3529 31.5475 28.9275 31.5475 28.4027C31.5475 27.8779 31.122 27.4525 30.5973 27.4525Z" fill="#008379"/>
<path d="M30.5973 32.2036H21C20.4752 32.2036 20.0498 32.629 20.0498 33.1538C20.0498 33.6787 20.4752 34.1041 21 34.1041H30.5973C31.122 34.1041 31.5475 33.6787 31.5475 33.1538C31.5475 32.629 31.122 32.2036 30.5973 32.2036Z" fill="#008379"/>
<path d="M30.5973 36.9547H21C20.4752 36.9547 20.0498 37.3802 20.0498 37.905C20.0498 38.4298 20.4752 38.8552 21 38.8552H30.5973C31.122 38.8552 31.5475 38.4298 31.5475 37.905C31.5475 37.3802 31.122 36.9547 30.5973 36.9547Z" fill="#008379"/>
<path d="M30.5973 41.7059H21C20.4752 41.7059 20.0498 42.1313 20.0498 42.6561C20.0498 43.1809 20.4752 43.6063 21 43.6063H30.5973C31.122 43.6063 31.5475 43.1809 31.5475 42.6561C31.5475 42.1313 31.122 41.7059 30.5973 41.7059Z" fill="#008379"/>
<path d="M16.2489 41.7059H6.65158C6.12677 41.7059 5.70135 42.1313 5.70135 42.6561C5.70135 43.1809 6.12677 43.6063 6.65158 43.6063H16.2489C16.7737 43.6063 17.1991 43.1809 17.1991 42.6561C17.1991 42.1313 16.7737 41.7059 16.2489 41.7059Z" fill="#008379"/>
<path d="M16.2489 27.4525H6.65158C6.12677 27.4525 5.70135 27.8779 5.70135 28.4027V38C5.70135 38.5248 6.12677 38.9502 6.65158 38.9502H16.2489C16.7737 38.9502 17.1991 38.5248 17.1991 38V28.4027C17.1991 27.8779 16.7737 27.4525 16.2489 27.4525ZM15.2986 37.0498H7.60181V29.3529H15.2986V37.0498Z" fill="#008379"/>
<path d="M40.0995 21.7511H37.2489V18.9005C37.2489 17.8525 36.3963 17 35.3484 17H1.90045C0.852543 17 0 17.8525 0 18.9005V49.3077C0 51.9275 2.13136 54.0588 4.75113 54.0588H37.2489C39.8686 54.0588 42 51.9275 42 49.3077V23.6516C42 22.6037 41.1475 21.7511 40.0995 21.7511ZM40.0995 49.3077C40.0995 50.8796 38.8207 52.1584 37.2489 52.1584H4.75113C3.17927 52.1584 1.90045 50.8796 1.90045 49.3077V18.9005H35.3484V47.8824C35.3484 49.1922 36.4141 50.2579 37.724 50.2579C38.2487 50.2579 38.6742 49.8325 38.6742 49.3077C38.6742 48.7829 38.2487 48.3575 37.724 48.3575C37.462 48.3575 37.2489 48.1443 37.2489 47.8824V23.6516H40.0995V49.3077Z" fill="#008379"/>
</svg>
