<svg width="60" height="60" viewBox="0 0 60 60" fill="none" xmlns="http://www.w3.org/2000/svg">
<g clip-path="url(#clip0)">
<path d="M55.3848 4.61594C51.9404 1.17144 47.0826 -0.432153 41.707 0.100582C36.3979 0.626755 31.2092 3.1811 27.0971 7.29321C26.7376 7.65263 26.3887 8.02329 26.0508 8.40181C25.6614 7.53696 25.1135 6.72673 24.4042 6.01727C21.2588 2.87184 16.1407 2.87195 12.9954 6.01727C9.83401 9.17876 9.85006 14.3327 13.0435 17.4738C14.4138 18.8218 16.2349 19.6428 18.1528 19.7708C18.8693 19.8186 19.5748 19.7717 20.2566 19.6392C19.7017 22.2798 19.665 24.8721 20.1199 27.2834L20.1041 27.2833C20.079 29.6941 19.5594 36.4051 17.4839 38.4807L13.2729 42.6918C13.087 42.6394 12.8932 42.6107 12.6948 42.6107C12.1282 42.6107 11.5953 42.8313 11.1947 43.2321L4.64341 49.7833C4.29337 50.1333 4.29337 50.7008 4.64341 51.0509C4.99345 51.4009 5.56099 51.4009 5.91103 51.0509L12.4622 44.4997C12.546 44.4159 12.6438 44.4034 12.6947 44.4034C12.7455 44.4034 12.8429 44.4159 12.9266 44.4991L15.5023 47.0748C15.6295 47.203 15.6293 47.4109 15.5016 47.5388L4.92876 58.1116C4.80044 58.2399 4.5922 58.2399 4.46388 58.1116L1.8895 55.5373C1.76118 55.409 1.76118 55.2007 1.8895 55.0724L2.9702 53.9917C3.32024 53.6417 3.32024 53.0741 2.9702 52.7241C2.62016 52.374 2.05262 52.374 1.70258 52.7241L0.621876 53.8048C-0.206641 54.6333 -0.206641 55.9766 0.621876 56.8051L3.19626 59.3794C3.60981 59.793 4.15309 59.9998 4.69638 59.9998C5.23966 59.9998 5.78294 59.7931 6.1965 59.3794L16.7693 48.8066C17.3311 48.2448 17.5102 47.4441 17.3089 46.7288L21.5207 42.517C23.5934 40.4443 30.3065 39.9228 32.7183 39.8968L32.7182 39.8839C33.3221 39.997 33.9392 40.0799 34.5685 40.1316C35.0905 40.1744 35.6152 40.1959 36.1429 40.1959C39.2249 40.1959 42.3838 39.467 45.4027 38.0555C45.8658 37.8389 46.0608 37.2848 45.8269 36.8301V36.83C45.6078 36.4038 45.0904 36.2222 44.6563 36.4254C41.3996 37.9507 37.9795 38.6135 34.7153 38.3449C31.1547 38.0522 28.033 36.658 25.6878 34.3131C21.9585 30.5838 20.6909 24.8702 22.259 18.9635C23.0433 18.5772 23.768 18.0622 24.4043 17.4259C26.3006 15.5295 27.0517 12.9166 26.6616 10.4508C27.1931 9.79775 27.763 9.16236 28.3649 8.5606C32.1848 4.74075 36.9859 2.36969 41.8839 1.8843C46.7155 1.40547 51.0597 2.82578 54.1173 5.88321C60.4786 12.2457 59.2775 23.798 51.44 31.6356C50.478 32.5977 49.4422 33.4771 48.3527 34.2572C47.9622 34.5368 47.8666 35.0774 48.1319 35.4776C48.4137 35.9026 48.9912 36.0053 49.4057 35.7081C50.5716 34.8725 51.6793 33.9317 52.7077 32.9032C56.82 28.791 59.3743 23.6026 59.9004 18.2937C60.4329 12.9187 58.8293 8.06091 55.3848 4.61594ZM14.263 16.1583C13.2334 15.1285 12.6387 13.8268 12.4759 12.4822C13.8612 12.649 15.1411 13.2678 16.1469 14.2736C17.1541 15.2808 17.7732 16.5615 17.9395 17.9489C16.5516 17.7823 15.2669 17.1622 14.263 16.1583ZM26.6291 37.4084C27.1804 37.783 27.7559 38.1221 28.3541 38.4235C28.1447 38.4498 27.9321 38.478 27.7165 38.5087C26.7353 38.6488 25.8372 38.8179 25.0221 39.0152L26.6291 37.4084ZM24.4199 35.5809C24.6713 35.8322 24.9302 36.0736 25.1966 36.3054L16.2325 45.2697L14.7314 43.7685L23.6966 34.8033C23.9282 35.0698 24.1686 35.3296 24.4199 35.5809ZM22.5945 33.3699L20.9857 34.9787C21.1829 34.1637 21.3522 33.2656 21.4922 32.2843C21.5235 32.0648 21.5522 31.8484 21.5788 31.6353C21.8804 32.2356 22.2185 32.8152 22.5945 33.3699ZM23.1365 16.1583C22.1998 17.095 21.0186 17.6974 19.7374 17.9095C19.5568 16.0577 18.7527 14.344 17.4146 13.0059C16.0778 11.6691 14.3666 10.8652 12.5156 10.6842C12.7228 9.43869 13.3041 8.24361 14.263 7.28478C15.2222 6.32571 16.4173 5.74434 17.6631 5.53727C17.843 7.38696 18.6462 9.09896 19.9839 10.4365C21.322 11.7748 23.0337 12.5807 24.8835 12.7606C24.6761 14.0057 24.0949 15.2 23.1365 16.1583ZM21.2516 9.16915C20.2448 8.16239 19.6264 6.88317 19.4609 5.4979C20.8054 5.66079 22.107 6.25528 23.1366 7.28501C24.1662 8.31439 24.7607 9.61599 24.9236 10.9605C23.5374 10.7948 22.2588 10.1765 21.2516 9.16915Z" fill="#008379"/>
<path d="M52.3078 7.69284C49.8022 5.18725 46.1898 4.02849 42.1354 4.4301C37.8244 4.85713 33.5762 6.96639 30.1731 10.3695C26.77 13.7725 24.6607 18.0208 24.2337 22.3318C23.8321 26.386 24.9909 29.9987 27.4965 32.5043C29.6767 34.6846 32.695 35.845 36.1134 35.845C36.6234 35.845 37.1425 35.8192 37.6689 35.7669C41.9799 35.3399 46.2282 33.2305 49.6312 29.8275C53.0344 26.4244 55.1436 22.1762 55.5707 17.8652C55.972 13.8111 54.8134 10.1983 52.3078 7.69284ZM51.6417 9.62655C52.4489 10.614 53.0441 11.7703 53.4125 13.0509L50.8148 10.4533L51.6417 9.62655ZM31.5244 20.0986L35.0794 16.5436L38.6343 20.0984L35.0793 23.6535L31.5244 20.0986ZM33.8117 24.9212L30.2565 28.4764L26.7016 24.9215L30.2568 21.3663L33.8117 24.9212ZM36.3474 15.2756L39.9016 11.7214L43.4565 15.2763L39.9023 18.8305L36.3474 15.2756ZM39.9021 21.3662L43.4566 24.9207L39.9016 28.4757L36.3471 24.9212L39.9021 21.3662ZM41.17 20.0982L44.7242 16.544L48.2788 20.0986L44.7246 23.6528L41.17 20.0982ZM45.9918 15.2763L49.5471 11.721L53.1016 15.2756L49.5464 18.8308L45.9918 15.2763ZM50.3731 8.35963L49.547 9.18581L46.9524 6.59115C48.2317 6.95971 49.3868 7.55338 50.3731 8.35963ZM44.7246 6.89854L48.2795 10.4534L44.7242 14.0087L41.1692 10.4538L44.7246 6.89854ZM42.312 6.21416C42.5163 6.19401 42.7188 6.17901 42.92 6.16764L39.9015 9.18616L37.9905 7.27518C39.4009 6.71854 40.8537 6.35865 42.312 6.21416ZM36.2521 8.07206L38.6339 10.4538L35.0797 14.008L32.0887 11.017C33.3787 9.83245 34.7817 8.84303 36.2521 8.07206ZM30.8206 12.2851L33.8117 15.2759L30.2567 18.8309L27.8751 16.4495C28.6461 14.9787 29.6358 13.5754 30.8206 12.2851ZM26.0175 22.5085C26.162 21.0505 26.5219 19.5978 27.0783 18.1878L28.9891 20.0986L25.9707 23.117C25.982 22.9156 25.9973 22.7129 26.0175 22.5085ZM28.1623 30.5705C27.3555 29.5834 26.7606 28.4276 26.392 27.1474L28.9887 29.7442L28.1623 30.5705ZM29.4301 31.8382L30.2565 31.0118L32.8532 33.6086C31.5729 33.24 30.4172 32.645 29.4301 31.8382ZM35.0786 33.2987L31.5241 29.7442L35.0793 26.1889L38.6339 29.7435L35.0786 33.2987ZM37.492 33.983C37.2875 34.0032 37.0844 34.0186 36.8828 34.0298L39.9016 31.0111L41.8127 32.9222C40.4027 33.4787 38.9502 33.8385 37.492 33.983ZM43.5512 32.1253L41.1693 29.7435L44.7242 26.1885L47.7157 29.1798C46.4253 30.3646 45.022 31.3543 43.5512 32.1253ZM48.9835 27.9119L45.9922 24.9206L49.5464 21.3664L51.9285 23.7485C51.1575 25.2188 50.1679 26.6219 48.9835 27.9119ZM53.7865 17.6885C53.642 19.1469 53.282 20.5998 52.7255 22.01L50.8141 20.0987L53.8333 17.0795C53.822 17.281 53.8066 17.484 53.7865 17.6885Z" fill="#008379"/>
</g>
<defs>
<clipPath id="clip0">
<rect width="60" height="60" fill="white"/>
</clipPath>
</defs>
</svg>
