<svg width="60" height="60" viewBox="0 0 60 60" fill="none" xmlns="http://www.w3.org/2000/svg">
<g clip-path="url(#clip0)">
<path d="M45.4293 54.377C45.1047 53.8175 44.3879 53.627 43.8278 53.9516L43.7826 53.9776C43.223 54.3023 43.0325 55.0194 43.3571 55.5792C43.5745 55.9539 43.9677 56.1632 44.3717 56.1632C44.5712 56.1632 44.7737 56.1119 44.9587 56.0046L45.0038 55.9786C45.5635 55.6539 45.754 54.9368 45.4293 54.377Z" fill="#008379"/>
<path d="M55.9801 15.0102C51.9744 8.0721 45.5067 3.10932 37.7683 1.03581C30.0302 -1.03771 21.9476 0.0264698 15.0095 4.03206C8.0715 8.03764 3.1086 14.5055 1.0352 22.2437C-1.03819 29.9819 0.0258682 38.0647 4.03146 45.0027C7.62454 51.2262 13.3353 55.956 20.1118 58.3206C23.324 59.4414 26.6774 60.0007 30.0255 60.0007C33.666 60.0007 37.2998 59.3391 40.7347 58.0189C41.3388 57.7868 41.6402 57.1089 41.4079 56.5048C41.1757 55.9007 40.4976 55.5989 39.8938 55.8315C30.7508 59.3456 20.8529 57.7489 13.458 52.1982L14.5079 46.718L15.0138 46.5537C16.9255 45.9326 17.9755 43.8719 17.3546 41.9601L16.9834 40.8177C16.8975 40.5533 16.8979 40.2738 16.9845 40.0097C17.3102 39.0169 17.1938 37.9307 16.6652 37.0292C16.1366 36.128 15.2454 35.496 14.2199 35.2955L11.5749 34.7787L6.47165 30.8986C6.16591 30.6661 5.76571 30.5982 5.40032 30.7168L2.41251 31.6874C2.34911 30.6187 2.34817 29.5505 2.40841 28.4878C2.5263 28.5976 2.60306 28.6723 2.65028 28.7212C2.70876 28.8186 2.78118 28.9079 2.86603 28.9853C3.11001 29.2074 3.33103 29.3082 3.79509 29.3082C4.22153 29.3081 4.85282 29.2232 5.89521 29.0692C6.8838 28.923 7.86724 28.7584 7.87696 28.7567C8.27106 28.6908 8.60423 28.4283 8.76103 28.0609C8.91782 27.6934 8.87646 27.2714 8.65134 26.9412L7.2145 24.8337L9.27255 23.362C9.40966 23.2639 9.52403 23.1375 9.60782 22.9912L12.798 17.4219L14.0839 16.044C15.3979 14.6357 15.7729 12.5751 15.0391 10.7944C14.6062 9.74401 13.8501 8.86956 12.9044 8.28022C13.9286 7.47502 15.0207 6.73159 16.1813 6.06163C20.4397 3.60303 25.0869 2.41159 29.6852 2.366L27.5927 4.99088L19.8331 7.71116C19.518 7.82155 19.2649 8.06131 19.1376 8.36999L16.9706 13.6233C16.8167 13.9965 16.8656 14.4224 17.1001 14.751L20.2651 19.1844C19.8118 19.598 19.3706 20.2003 18.8436 20.9482C18.6125 21.2762 18.3943 21.5859 18.2435 21.7596C18.1124 21.9108 17.9811 22.0584 17.851 22.2047C17.1703 22.9705 16.4665 23.7626 15.9664 24.8205C14.867 27.1478 15.089 29.8527 16.5459 31.8798C17.9546 33.8398 20.277 34.8361 22.7558 34.5445C23.1596 34.4972 23.5361 34.404 23.9005 34.3138C24.9051 34.0652 25.2234 34.0404 25.5457 34.342C25.7025 34.4889 25.7169 34.5166 25.7137 35.0146C25.7115 35.3314 25.709 35.7257 25.8183 36.1758C25.9932 36.8959 26.4454 37.3936 26.8087 37.7934C26.9893 37.9921 27.1761 38.1976 27.2336 38.3355C27.5992 39.2114 27.44 39.6964 27.0913 40.7593C27.0614 40.8503 27.0309 40.9431 27.0003 41.0382C26.4705 42.6783 27.209 44.3051 27.8606 45.7401C28.0722 46.2062 28.272 46.6461 28.4029 47.035C29.4566 50.1614 30.2464 50.8774 30.8803 51.1657C31.2123 51.3166 31.5559 51.3828 31.903 51.3827C33.5922 51.3826 35.355 49.8142 36.1647 48.8198C36.6733 48.1955 36.7986 47.5703 36.89 47.1136C36.9356 46.8865 36.9715 46.7072 37.0399 46.59C37.1447 46.4107 37.2681 46.2717 37.4243 46.0957C37.7385 45.7419 38.1295 45.3017 38.3828 44.5038C38.5752 43.8977 38.715 43.7491 39.178 43.256C39.2586 43.1703 39.3445 43.0787 39.4367 42.9784C40.9976 41.28 40.5956 39.9826 40.1699 38.6089C39.8116 37.4531 40.4382 36.7139 41.9532 35.3031C42.6099 34.6915 43.2889 34.0591 43.8138 33.2993C44.0435 32.9667 44.7423 31.955 44.3099 30.9523C43.886 29.969 42.8087 29.8038 41.9431 29.6712C41.6013 29.6187 41.0847 29.5394 40.9203 29.432C40.1953 28.958 39.7517 27.9687 39.3227 27.0118C39.2373 26.8214 39.153 26.6334 39.0676 26.451C38.9153 26.1254 38.763 25.7316 38.6019 25.3146C38.1756 24.2112 37.6924 22.9604 36.8699 22.0885C36.1305 21.3051 34.7368 20.9278 33.5072 20.5948C33.0936 20.4828 32.7033 20.3771 32.4458 20.2821C32.2301 20.2024 31.9959 20.188 31.7726 20.2405C31.1741 20.3808 30.8007 20.5353 30.5235 20.7575C30.4502 20.8162 30.2333 21.009 30.1063 21.3189C29.6772 21.113 29.0873 20.7198 28.7243 20.4778C28.7168 20.4728 28.7092 20.4677 28.7017 20.4627C28.824 19.9731 28.7133 19.5801 28.5972 19.3348C27.9426 17.9501 25.7696 18.0585 25.341 18.0949C25.0974 18.1153 24.7893 18.1262 24.4635 18.1377C23.9516 18.1558 23.3858 18.1762 22.826 18.239L22.8548 18.1587C23.2797 16.9747 24.4104 16.1792 25.6683 16.1792H26.3345C26.9815 16.1792 27.5062 15.6545 27.5062 15.0075C27.5062 14.3605 26.9815 13.8357 26.3345 13.8357H25.6683C23.8008 13.8357 22.0906 14.8186 21.1322 16.3656L19.3843 13.9172L21.1039 9.74893L28.6863 7.09065C28.8942 7.01776 29.0775 6.88768 29.2149 6.7153L32.5856 2.48729C41.1982 3.30655 49.3052 8.13538 53.9508 16.1817C55.1881 18.3249 56.1035 20.5813 56.7121 22.8891L56.2153 23.332C55.5669 23.9106 55.187 24.7404 55.1724 25.6089C55.1723 25.6183 55.1721 25.6277 55.1717 25.6371L54.3624 23.4115C54.2419 23.0794 54.0642 22.7748 53.8347 22.5063L52.3911 20.8161C51.8314 20.1609 51.0165 19.7853 50.1551 19.7853H48.388C47.7607 19.7853 47.1874 20.1289 46.8915 20.6817C46.5956 21.2346 46.6279 21.9023 46.9759 22.424L47.1547 22.6925C46.0128 23.6744 44.6921 24.4602 43.2859 24.9901L40.8636 20.3503V19.3152C40.8636 18.995 40.7326 18.6886 40.5009 18.4677L38.3197 16.3854C38.1994 16.2705 38.0559 16.1826 37.899 16.1274L35.9355 15.4374C35.3246 15.2225 34.656 15.544 34.4415 16.1544C34.2269 16.7651 34.5479 17.4339 35.1585 17.6484L36.8839 18.2549L38.5201 19.8166V20.6379C38.5201 20.8267 38.5658 21.0128 38.6532 21.1802L41.6857 26.9889C41.9584 27.5115 42.5774 27.7503 43.1298 27.546L44.0128 27.2204C46.0642 26.4639 47.9655 25.2469 49.5115 23.7012C49.9064 23.3061 49.9678 22.6875 49.6578 22.2226L49.5955 22.129H50.1551C50.33 22.129 50.4956 22.2053 50.6093 22.3384L52.0529 24.0286C52.0994 24.0831 52.1354 24.1447 52.16 24.2123L53.7532 28.5932C53.8901 28.9696 54.2097 29.2499 54.6004 29.3366C54.6848 29.3552 54.7698 29.3644 54.8543 29.3644C55.1617 29.3644 55.4608 29.2433 55.6828 29.0211L56.4411 28.2628C56.9213 27.7824 57.2519 27.1747 57.4099 26.501C58.5827 35.9 54.8973 45.6228 47.1074 51.737C46.5982 52.1365 46.5094 52.873 46.9091 53.3822C47.3086 53.8914 48.045 53.9802 48.5543 53.5805C54.1783 49.1664 58.042 42.8529 59.4336 35.803C60.8382 28.6851 59.6119 21.3006 55.9801 15.0102ZM5.54118 33.1352L10.3732 36.8092C10.516 36.9178 10.6817 36.9921 10.8577 37.0264L13.7701 37.5955C14.1418 37.6682 14.4519 37.888 14.6435 38.2147C14.8351 38.5413 14.8754 38.9192 14.7575 39.2791C14.5149 40.0189 14.5138 40.8014 14.7543 41.5417L15.1256 42.684C15.3474 43.3667 14.9722 44.1028 14.2896 44.3246L13.1251 44.703C12.7188 44.835 12.4167 45.1776 12.3364 45.5969L11.3992 50.4894C9.33864 48.6035 7.5295 46.3746 6.06103 43.831C4.26946 40.7283 3.15009 37.4188 2.65673 34.0724L5.54118 33.1352ZM12.3705 14.4451L10.992 15.922C10.9305 15.988 10.8767 16.0609 10.8318 16.1392L7.70153 21.6043L4.91938 23.5937C4.40118 23.9642 4.27392 24.6806 4.63274 25.207L5.67325 26.7333C5.07349 26.8226 4.53524 26.8962 4.17735 26.9352C4.10856 26.8692 4.03661 26.8023 3.9622 26.7332C3.68364 26.4744 3.29657 26.1288 2.71954 25.6239C3.67122 19.7337 6.5095 14.1846 10.9734 9.94885C11.8282 10.218 12.5297 10.8556 12.8723 11.6873C13.2579 12.6227 13.0608 13.7053 12.3705 14.4451ZM21.9248 20.8486C22.4475 20.5544 23.6606 20.5114 24.5463 20.48C24.9013 20.4675 25.2367 20.4555 25.5362 20.4305C25.6943 20.4172 25.8698 20.4197 26.0354 20.4326C25.9615 20.6224 25.9374 20.8308 25.9695 21.0375C26.0259 21.4011 26.2501 21.7169 26.5745 21.8905C26.7943 22.0082 27.1003 22.2122 27.4242 22.4282C28.34 23.0387 29.3782 23.7307 30.3534 23.7928C31.2403 23.8503 31.7338 23.3449 31.9452 23.1296C31.962 23.1125 31.978 23.0954 31.9949 23.0798C32.1139 22.9828 32.2255 22.8527 32.3085 22.6958C32.4958 22.7494 32.6927 22.8027 32.8945 22.8574C33.5884 23.0453 34.8799 23.3949 35.1653 23.6973C35.6721 24.2346 36.0671 25.2573 36.4158 26.1595C36.5919 26.6155 36.7583 27.0458 36.945 27.4448C37.0251 27.616 37.104 27.7924 37.1842 27.971C37.7249 29.1771 38.3378 30.5442 39.6379 31.3941C40.2275 31.7795 40.9502 31.8902 41.588 31.9881C41.6651 31.9999 41.7534 32.0135 41.8432 32.0283C41.4647 32.5563 40.9257 33.0581 40.3563 33.5884C38.9056 34.9393 37.1003 36.6207 37.9317 39.303C38.3242 40.5696 38.3424 40.7065 37.7114 41.393C37.6254 41.4866 37.5452 41.5719 37.4701 41.6518C36.9296 42.2272 36.5027 42.6817 36.1493 43.7949C36.0466 44.1183 35.9136 44.268 35.6721 44.5399C35.479 44.7574 35.2384 45.0283 35.0165 45.408C34.7508 45.863 34.6629 46.301 34.5924 46.6529C34.5229 46.9992 34.4836 47.173 34.3476 47.3399C34.0381 47.7198 33.4609 48.2715 32.8683 48.648C32.3175 48.9977 31.9959 49.0455 31.8863 49.039C31.7613 48.9049 31.3084 48.3179 30.624 46.2867C30.4552 45.7856 30.2211 45.27 29.9947 44.7714C29.4956 43.6721 28.9796 42.5354 29.2306 41.7586C29.2603 41.6669 29.2896 41.5774 29.3184 41.4899C29.7194 40.2676 30.0979 39.1134 29.3967 37.433C29.1832 36.9212 28.8432 36.5473 28.5436 36.2173C28.3496 36.0039 28.1299 35.762 28.096 35.6228C28.0548 35.453 28.0561 35.2569 28.0576 35.0299C28.0616 34.4176 28.0677 33.4924 27.1479 32.6311C25.8511 31.4173 24.3389 31.7912 23.3381 32.0387C23.0307 32.1146 22.7403 32.1866 22.483 32.2168C20.8367 32.4097 19.367 31.7886 18.4494 30.5117C17.4895 29.1762 17.3502 27.3789 18.0859 25.8214C18.442 25.0678 18.98 24.4623 19.603 23.7615C19.739 23.6083 19.8764 23.4539 20.0137 23.2957C20.2422 23.0323 20.4937 22.6755 20.7596 22.2978C21.0771 21.8473 21.6682 21.0082 21.9248 20.8486Z" fill="#008379"/>
<path d="M48.0494 40.3451L47.4857 38.22C47.3625 37.7559 46.9687 37.414 46.4921 37.357C46.015 37.3012 45.5522 37.5398 45.3231 37.9618C45.1946 38.1985 45.079 38.4493 44.9672 38.6918C44.7791 39.0997 44.5846 39.5216 44.3822 39.7544C44.2685 39.8852 43.9765 40.0262 43.6943 40.1624C43.0197 40.4879 42.0956 40.9338 41.7427 42.059C41.5235 42.757 41.6053 43.3092 41.6651 43.7123C41.7168 44.0619 41.7287 44.1831 41.6351 44.4029L41.6234 44.4302C41.2504 45.3055 40.5564 46.935 41.5295 48.3203C42.2238 49.3088 42.9539 49.563 43.5212 49.563C43.632 49.5634 43.7367 49.5536 43.8336 49.5378C45.0289 49.3425 45.9275 48.0991 46.6618 45.6246L48.0402 40.9792C48.1015 40.7726 48.1048 40.5532 48.0494 40.3451ZM44.4152 44.9579C44.0409 46.2196 43.7098 46.8085 43.5186 47.0696C43.4966 47.0415 43.4727 47.0096 43.4472 46.9732C43.2232 46.6542 43.5579 45.8686 43.7794 45.3486L43.7912 45.3212C44.1484 44.4828 44.0529 43.839 43.9834 43.3689C43.9388 43.0678 43.9228 42.9384 43.9787 42.7606C44.0247 42.6145 44.2992 42.4727 44.7129 42.273C44.8963 42.1844 45.0982 42.0871 45.302 41.9692L44.4152 44.9579Z" fill="#008379"/>
<path d="M31.6441 13.9289L31.565 13.9013C30.9549 13.6875 30.2857 14.0085 30.0715 14.6192C29.8573 15.2299 30.1787 15.8985 30.7894 16.1127L30.8684 16.1404C30.9967 16.1854 31.1275 16.2067 31.2563 16.2067C31.74 16.2067 32.1928 15.9047 32.362 15.4225C32.5763 14.8117 32.2548 14.143 31.6441 13.9289Z" fill="#008379"/>
</g>
<defs>
<clipPath id="clip0">
<rect width="60" height="60" fill="white"/>
</clipPath>
</defs>
</svg>
