<svg width="46" height="46" viewBox="0 0 46 46" fill="none" xmlns="http://www.w3.org/2000/svg">
<g clip-path="url(#clip0)">
<path d="M0.00978022 31.92C0.00978022 37.9677 4.91216 42.8701 10.9598 42.8701C17.0076 42.8701 21.9099 37.9677 21.9099 31.92C21.9099 25.8722 17.0076 20.97 10.9598 20.97C9.71693 20.97 8.52719 21.1866 7.41342 21.5684C9.87765 7.43545 20.8987 -1.67873 10.6822 5.82242C-0.646297 14.1404 -0.00235259 31.5853 0.0103235 31.9051C0.0103235 31.91 0.00978022 31.9145 0.00978022 31.92Z" fill="#008379"/>
<path d="M24.0998 31.92C24.0998 37.9677 29.0022 42.8701 35.05 42.8701C41.0977 42.8701 46.0001 37.9677 46.0001 31.92C46.0001 25.8722 41.0976 20.97 35.0499 20.97C33.8069 20.97 32.6172 21.1866 31.5035 21.5684C33.9677 7.43545 44.9887 -1.67873 34.7723 5.82242C23.4438 14.1404 24.0876 31.5853 24.1004 31.9051C24.1004 31.91 24.0998 31.9145 24.0998 31.92Z" fill="#008379"/>
</g>
<defs>
<clipPath id="clip0">
<rect width="46" height="46" fill="white"/>
</clipPath>
</defs>
</svg>
