<svg width="60" height="53" viewBox="0 0 60 53" fill="none" xmlns="http://www.w3.org/2000/svg">
<path d="M57.7792 10.8961H46.7792V7.89606C46.7749 4.03193 43.6434 0.900432 39.7792 0.896057H21.7792C17.9151 0.900432 14.7836 4.03193 14.7792 7.89606V10.8961H3.77924C2.12236 10.8961 0.779236 12.2392 0.779236 13.8961V33.8961C0.784486 35.1628 1.58486 36.2898 2.77924 36.7121V49.8961C2.77924 51.5529 4.12236 52.8961 5.77924 52.8961H55.7792C57.4361 52.8961 58.7792 51.5529 58.7792 49.8961V36.7121C59.9736 36.2898 60.774 35.1628 60.7792 33.8961V13.8961C60.7792 12.2392 59.4361 10.8961 57.7792 10.8961ZM16.7792 7.89606C16.7825 5.13606 19.0192 2.89931 21.7792 2.89606H39.7792C42.5392 2.89931 44.776 5.13606 44.7792 7.89606V10.8961H42.7392L42.7792 7.89606C42.776 6.24056 41.4347 4.89931 39.7792 4.89606H21.7422C20.0867 4.89931 18.7455 6.24056 18.7422 7.89606V7.90606L18.7692 10.8961H16.7792V7.89606ZM40.7792 7.88206L40.7392 10.8961H20.7692L20.7382 7.89606C20.7382 7.34381 21.186 6.89606 21.7382 6.89606H39.7792C40.3261 6.89606 40.7716 7.33518 40.7792 7.88206ZM56.7792 49.8961C56.7792 50.4483 56.3315 50.8961 55.7792 50.8961H5.77924C5.22699 50.8961 4.77924 50.4483 4.77924 49.8961V36.8961H11.7792V39.8961C11.7792 40.4483 12.227 40.8961 12.7792 40.8961H16.7792C17.3315 40.8961 17.7792 40.4483 17.7792 39.8961V36.8961H43.7792V39.8961C43.7792 40.4483 44.227 40.8961 44.7792 40.8961H48.7792C49.3315 40.8961 49.7792 40.4483 49.7792 39.8961V36.8961H56.7792V49.8961ZM13.7792 38.8961V33.8961C13.7787 33.6264 13.8899 33.3687 14.0862 33.1841C14.2681 32.9972 14.5185 32.8931 14.7792 32.8961C15.3315 32.8961 15.7792 33.3438 15.7792 33.8961V35.8961V38.8961H13.7792ZM45.7792 38.8961V33.8961C45.7792 33.3438 46.227 32.8961 46.7792 32.8961C47.049 32.8952 47.3071 33.0059 47.4922 33.2021C47.6777 33.3852 47.7812 33.6354 47.7792 33.8961V35.8961V38.8961H45.7792ZM58.7792 33.8961C58.7792 34.4483 58.3315 34.8961 57.7792 34.8961H49.7792V33.8961C49.7721 32.2422 48.4331 30.9032 46.7792 30.8961C45.1224 30.8961 43.7792 32.2392 43.7792 33.8961V34.8961H17.7792V33.8961C17.7792 32.2392 16.4361 30.8961 14.7792 30.8961C13.1262 30.9053 11.7885 32.2431 11.7792 33.8961V34.8961H3.77924C3.22699 34.8961 2.77924 34.4483 2.77924 33.8961V13.8961C2.77924 13.3438 3.22699 12.8961 3.77924 12.8961H57.7792C58.3315 12.8961 58.7792 13.3438 58.7792 13.8961V33.8961Z" fill="#008379"/>
</svg>
