<svg width="60" height="50" viewBox="0 0 60 50" fill="none" xmlns="http://www.w3.org/2000/svg">
<path d="M53.9735 23.0005H50.8594V19.8233C50.8594 19.163 50.3347 18.6277 49.6875 18.6277C49.0403 18.6277 48.5156 19.163 48.5156 19.8233V23.0005H45.4015C44.7543 23.0005 44.2296 23.5358 44.2296 24.1961C44.2296 24.8564 44.7543 25.3917 45.4015 25.3917H48.5156V28.5689C48.5156 29.2292 49.0403 29.7645 49.6875 29.7645C50.3347 29.7645 50.8594 29.2292 50.8594 28.5689V25.3917H53.9735C54.6207 25.3917 55.1454 24.8564 55.1454 24.1961C55.1454 23.5358 54.6207 23.0005 53.9735 23.0005Z" fill="#008379"/>
<path d="M53.5189 14.4282C52.4244 6.17502 45.6617 0 37.6347 0C33.5827 0 29.7923 1.54101 26.836 4.3656C23.8796 1.54101 20.0891 0 16.0373 0C7.19427 0 0 7.51469 0 16.7515C0 18.5765 0.521837 20.622 1.56 22.88H1.17188C0.524649 22.88 0 23.4153 0 24.0756C0 24.736 0.524649 25.2712 1.17188 25.2712H2.80805C4.99677 29.0517 8.45802 33.3507 13.1776 38.1386C19.5737 44.6272 26.0594 49.7036 26.1242 49.7542C26.3342 49.9181 26.5851 50 26.836 50C27.0869 50 27.3377 49.9181 27.5478 49.7542C27.5972 49.7156 32.5576 45.8349 38.0546 40.5472C38.5256 40.0942 38.5474 39.3375 38.1034 38.8572C37.6595 38.3768 36.9178 38.3544 36.4468 38.8074C32.2545 42.84 28.3842 46.0374 26.8361 47.2866C24.9965 45.8017 19.8752 41.5629 14.8135 36.426C10.7611 32.3133 7.65892 28.5653 5.56161 25.2712H16.053C16.5757 25.2712 17.0352 24.9179 17.1794 24.4054L19.2269 17.1239L24.8969 35.6579C25.0497 36.1571 25.5029 36.4973 26.0156 36.4973C26.5283 36.4973 26.9814 36.1571 27.1341 35.6579L30.2742 25.3909H35.5059C36.1531 25.3909 36.6778 24.8556 36.6778 24.1953C36.6778 23.535 36.1531 22.9997 35.5059 22.9997H29.4122C28.8995 22.9997 28.4463 23.3397 28.2936 23.8391L26.0152 31.2883L20.2981 12.6004C20.1439 12.0962 19.6847 11.7538 19.1658 11.7611C18.6482 11.7672 18.1957 12.1192 18.0529 12.6269L15.1697 22.8801H4.1747C2.96333 20.5468 2.34375 18.4903 2.34375 16.7515C2.34375 8.83319 8.48662 2.3912 16.0373 2.3912C19.8323 2.3912 23.3615 3.98277 25.9747 6.87253C26.1966 7.11787 26.5088 7.2574 26.836 7.2574C27.1632 7.2574 27.4755 7.11787 27.6973 6.87253C30.3105 3.98277 33.8397 2.3912 37.6347 2.3912C44.1629 2.3912 49.713 7.19439 51.0322 13.7643C50.5919 13.7056 50.1432 13.6749 49.6875 13.6749C44.0012 13.6749 39.375 18.3947 39.375 24.1961C39.375 29.9975 44.0012 34.7174 49.6875 34.7174C55.3738 34.7174 60 29.9975 60 24.1961C60.0001 19.7753 57.3136 15.9831 53.5189 14.4282ZM49.6876 32.3262C45.2936 32.3262 41.7188 28.679 41.7188 24.1961C41.7188 19.7132 45.2936 16.0661 49.6876 16.0661C54.0816 16.0661 57.6564 19.7132 57.6564 24.1961C57.6564 28.679 54.0816 32.3262 49.6876 32.3262Z" fill="#008379"/>
</svg>
