<svg width="60" height="60" viewBox="0 0 60 60" fill="none" xmlns="http://www.w3.org/2000/svg">
<g clip-path="url(#clip0)">
<path d="M58.7257 22.4861H3.70522C3.01496 22.4861 2.45471 23.0463 2.45471 23.7366V53.7477C2.45471 57.194 5.25829 60 8.70699 60H53.7237C57.1725 60 59.976 57.194 59.976 53.7477V23.7366C59.9761 23.0462 59.416 22.4861 58.7257 22.4861ZM57.4752 53.7476C57.4752 55.8159 55.7921 57.499 53.7238 57.499H8.70711C6.6388 57.499 4.95572 55.8159 4.95572 53.7476V24.987H57.4752V53.7476Z" fill="#008379"/>
<path d="M59.9355 10.9142L57.8071 2.83874C57.317 0.875473 55.3113 -0.357445 53.323 0.0927219L2.93928 12.0471C1.94891 12.2722 1.11106 12.8749 0.578361 13.7403C0.0456637 14.6056 -0.111895 15.626 0.138159 16.6163L2.49403 25.9297C2.63412 26.4949 3.14431 26.8726 3.70444 26.8726C3.80444 26.8726 3.90702 26.8627 4.01452 26.8351C4.68227 26.6676 5.08742 25.9873 4.91732 25.3171L4.7798 24.7744L59.0024 12.4549C59.3325 12.3774 59.6201 12.1722 59.7953 11.8822C59.973 11.592 60.0205 11.2419 59.9355 10.9142ZM4.16727 22.3484L2.56168 16.0086C2.47915 15.6785 2.53413 15.3384 2.70927 15.0482C2.88687 14.7607 3.16694 14.5606 3.50703 14.4805L53.8907 2.52867C53.9807 2.50616 54.0732 2.49619 54.1632 2.49619C54.7235 2.49619 55.2412 2.8813 55.3837 3.45901L57.1869 10.2991L4.16727 22.3484Z" fill="#008379"/>
<path d="M14.2692 22.6161C13.6489 22.3135 12.9036 22.5585 12.5885 23.1763L7.58663 33.18C7.27902 33.7977 7.52907 34.548 8.14688 34.8582C8.32941 34.9482 8.51956 34.9908 8.70713 34.9908C9.1648 34.9908 9.60746 34.7381 9.82751 34.2981L14.8294 24.2944C15.137 23.6765 14.8868 22.9262 14.2692 22.6161Z" fill="#008379"/>
<path d="M26.7713 22.6161C26.1536 22.3135 25.4034 22.5585 25.0932 23.1763L20.0913 33.18C19.7837 33.7977 20.0337 34.548 20.6515 34.8582C20.834 34.9482 21.0242 34.9908 21.2118 34.9908C21.6694 34.9908 22.1121 34.7381 22.3297 34.2981L27.3316 24.2944C27.6391 23.6765 27.389 22.9262 26.7713 22.6161Z" fill="#008379"/>
<path d="M39.2759 22.6161C38.6607 22.3135 37.9104 22.5585 37.5977 23.1763L32.5959 33.18C32.2882 33.7977 32.5383 34.548 33.1561 34.8582C33.3386 34.9482 33.5288 34.9908 33.7163 34.9908C34.174 34.9908 34.6167 34.7381 34.8343 34.2981L39.8361 24.2944C40.1438 23.6765 39.8936 22.9262 39.2759 22.6161Z" fill="#008379"/>
<path d="M51.7806 22.6161C51.1603 22.3135 50.4151 22.5585 50.1024 23.1763L45.1006 33.18C44.7929 33.7977 45.043 34.548 45.6608 34.8582C45.8433 34.9482 46.0335 34.9908 46.221 34.9908C46.6787 34.9908 47.1214 34.7381 47.339 34.2981L52.3409 24.2944C52.6484 23.6765 52.3983 22.9262 51.7806 22.6161Z" fill="#008379"/>
<path d="M58.7257 32.4897H3.70522C3.01496 32.4897 2.45471 33.05 2.45471 33.7402C2.45471 34.4305 3.01496 34.9907 3.70522 34.9907H58.7257C59.4184 34.9907 59.9762 34.4305 59.9762 33.7402C59.9762 33.05 59.416 32.4897 58.7257 32.4897Z" fill="#008379"/>
<path d="M15.7972 20.3027L7.184 11.6896C6.69632 11.2019 5.90349 11.2019 5.41581 11.6896C4.92813 12.1772 4.92813 12.9701 5.41581 13.4577L14.029 22.0734C14.2741 22.316 14.5942 22.4386 14.9143 22.4386C15.2345 22.4386 15.5545 22.3161 15.7972 22.0709C16.2849 21.5831 16.2849 20.7904 15.7972 20.3027Z" fill="#008379"/>
<path d="M28.0317 17.5242L19.4111 8.91099C18.9234 8.42331 18.1306 8.42331 17.6429 8.91099C17.1552 9.39867 17.1552 10.1915 17.6429 10.6792L26.2612 19.2924C26.5063 19.5349 26.8263 19.6575 27.1465 19.6575C27.4666 19.6575 27.7867 19.535 28.0318 19.2924C28.5195 18.8047 28.5195 18.0119 28.0317 17.5242Z" fill="#008379"/>
<path d="M40.2563 14.7457L31.6506 6.13004C31.1629 5.64236 30.3701 5.64236 29.8824 6.13004C29.3947 6.61772 29.3947 7.41056 29.8824 7.89824L38.4881 16.5139C38.7332 16.7564 39.0533 16.8791 39.3734 16.8791C39.6936 16.8791 40.0136 16.759 40.2563 16.5139C40.744 16.0262 40.744 15.2334 40.2563 14.7457Z" fill="#008379"/>
<path d="M52.4759 11.9696L43.8676 3.35398C43.3799 2.8663 42.5871 2.8663 42.0994 3.35398C41.6117 3.84166 41.6117 4.6345 42.0994 5.12218L50.7076 13.7378C50.9527 13.9804 51.2727 14.103 51.5929 14.103C51.913 14.103 52.2331 13.9805 52.4757 13.7378C52.9635 13.2502 52.9635 12.4573 52.4759 11.9696Z" fill="#008379"/>
</g>
<defs>
<clipPath id="clip0">
<rect width="60" height="60" fill="white"/>
</clipPath>
</defs>
</svg>
